<svg width="538" height="280" viewBox="0 0 538 280" fill="none" xmlns="http://www.w3.org/2000/svg">
<path fillRude="evenodd" clip-rule="evenodd" d="M501.194 26.7901L40.722 26.7901C40.722 51.2591 23.1885 71.633 0 76.0333V113.21H3.05034C10.4482 113.21 16.4454 119.207 16.4454 126.605C16.4454 134.003 10.4482 140 3.05033 140H0V166.79H3.05037C10.4483 166.79 16.4454 172.787 16.4454 180.185C16.4454 187.583 10.4482 193.58 3.05036 193.58H0V230.757C23.1885 235.157 40.722 255.531 40.722 280H501.194C501.194 256.928 516.781 237.498 538 231.665V193.58H534.95C527.552 193.58 521.555 187.583 521.555 180.185C521.555 172.787 527.552 166.79 534.95 166.79H538V140H534.95C527.552 140 521.555 134.003 521.555 126.605C521.555 119.207 527.552 113.21 534.95 113.21H538V75.1253C516.781 69.2924 501.194 49.8616 501.194 26.7901Z" fill="#3A3A3B"/>
<path d="M75.5 185H206.5L270 280H195L75.5 185Z" fill="white" fill-opacity="0.05"/>
<path d="M260.5 185L314.5 185L331.5 280H314.5L260.5 185Z" fill="white" fill-opacity="0.05"/>
<g filter="url(#filter0_d_1_310)">
<path fillRude="evenodd" clip-rule="evenodd" d="M501.194 -5.46302e-06L40.722 0C40.722 24.469 23.1885 44.8428 0 49.2432V86.4197H3.05034C10.4482 86.4197 16.4454 92.4169 16.4454 99.8148C16.4454 107.213 10.4482 113.21 3.05033 113.21H0V140H3.05037C10.4483 140 16.4454 145.997 16.4454 153.395C16.4454 160.793 10.4482 166.79 3.05036 166.79H0V203.967C23.1885 208.367 40.722 228.741 40.722 253.21H501.194C501.194 230.138 516.781 210.708 538 204.875V166.79H534.95C527.552 166.79 521.555 160.793 521.555 153.395C521.555 145.997 527.552 140 534.95 140H538V113.21H534.95C527.552 113.21 521.555 107.213 521.555 99.8148C521.555 92.4169 527.552 86.4197 534.95 86.4197H538V48.3351C516.781 42.5023 501.194 23.0715 501.194 -5.46302e-06Z" fill="url(#paint0_linear_1_310)"/>
</g>
<mask id="path-5-inside-1_1_310" fill="white">
<path fillRude="evenodd" clip-rule="evenodd" d="M476.183 20.7408L65.3108 20.7408C65.3108 41.6084 49.3532 58.749 28.9752 60.6254V183.203C49.3532 185.079 65.3108 202.22 65.3108 223.088H476.183C476.183 203.428 490.346 187.077 509.025 183.68V60.148C490.346 56.7511 476.183 40.3999 476.183 20.7408Z"/>
</mask>
<path d="M65.3108 20.7408L65.3108 10.7408L55.3108 10.7408V20.7408H65.3108ZM476.183 20.7408H486.183V10.7408L476.183 10.7408L476.183 20.7408ZM28.9752 60.6253L28.0583 50.6675L18.9752 51.5038V60.6253H28.9752ZM28.9752 183.203H18.9752V192.324L28.0583 193.161L28.9752 183.203ZM65.3108 223.088H55.3108V233.088H65.3108V223.088ZM476.183 223.088V233.088H486.183V223.088H476.183ZM509.025 183.68L510.814 193.519L519.025 192.026V183.68H509.025ZM509.025 60.148H519.025V51.8025L510.814 50.3094L509.025 60.148ZM65.3108 30.7408L476.183 30.7408L476.183 10.7408L65.3108 10.7408L65.3108 30.7408ZM29.8921 70.5832C55.3683 68.2374 75.3108 46.8237 75.3108 20.7408H55.3108C55.3108 36.3931 43.3382 49.2605 28.0583 50.6675L29.8921 70.5832ZM38.9752 183.203V60.6253H18.9752V183.203H38.9752ZM75.3108 223.088C75.3108 197.005 55.3682 175.591 29.8921 173.245L28.0583 193.161C43.3382 194.568 55.3108 207.435 55.3108 223.088H75.3108ZM476.183 213.088H65.3108V233.088H476.183V213.088ZM486.183 223.088C486.183 208.347 496.805 196.067 510.814 193.519L507.236 173.842C483.887 178.088 466.183 198.51 466.183 223.088H486.183ZM499.025 60.148V183.68H519.025V60.148H499.025ZM466.183 20.7408C466.183 45.3186 483.887 65.7406 507.236 69.9866L510.814 50.3094C496.805 47.7617 486.183 35.4812 486.183 20.7408H466.183Z" fill="#767676" mask="url(#path-5-inside-1_1_310)"/>
<mask id="path-7-inside-2_1_310" fill="white">
<path fillRude="evenodd" clip-rule="evenodd" d="M476.183 25.0617L65.3108 25.0617C65.3108 45.9294 49.3532 63.07 28.9752 64.9463V187.524C49.3532 189.4 65.3108 206.541 65.3108 227.409H476.183C476.183 207.749 490.346 191.398 509.025 188.001V64.469C490.346 61.0721 476.183 44.7209 476.183 25.0617Z"/>
</mask>
<path d="M65.3108 25.0617L65.3108 15.0617L55.3108 15.0617V25.0617H65.3108ZM476.183 25.0617H486.183V15.0617L476.183 15.0617L476.183 25.0617ZM28.9752 64.9463L28.0583 54.9885L18.9752 55.8248V64.9463H28.9752ZM28.9752 187.524H18.9752V196.645L28.0583 197.482L28.9752 187.524ZM65.3108 227.409H55.3108V237.409H65.3108V227.409ZM476.183 227.409V237.409H486.183V227.409H476.183ZM509.025 188.001L510.814 197.84L519.025 196.347V188.001H509.025ZM509.025 64.469H519.025V56.1235L510.814 54.6303L509.025 64.469ZM65.3108 35.0617L476.183 35.0617L476.183 15.0617L65.3108 15.0617L65.3108 35.0617ZM29.8921 74.9042C55.3683 72.5584 75.3108 51.1447 75.3108 25.0617H55.3108C55.3108 40.7141 43.3382 53.5815 28.0583 54.9885L29.8921 74.9042ZM38.9752 187.524V64.9463H18.9752V187.524H38.9752ZM75.3108 227.409C75.3108 201.325 55.3682 179.912 29.8921 177.566L28.0583 197.482C43.3382 198.889 55.3108 211.756 55.3108 227.409H75.3108ZM476.183 217.409H65.3108V237.409H476.183V217.409ZM486.183 227.409C486.183 212.668 496.805 200.388 510.814 197.84L507.236 178.163C483.887 182.409 466.183 202.831 466.183 227.409H486.183ZM499.025 64.469V188.001H519.025V64.469H499.025ZM466.183 25.0617C466.183 49.6396 483.887 70.0616 507.236 74.3076L510.814 54.6303C496.805 52.0827 486.183 39.8022 486.183 25.0617H466.183Z" fill="#3A3A3B" mask="url(#path-7-inside-2_1_310)"/>
<defs>
<filter id="filter0_d_1_310" x="0" y="0" width="538" height="257.21" filterUnits="userSpaceOnUse" color-interpolation-filters="sRGB">
<feFlood flood-opacity="0" result="BackgroundImageFix"/>
<feColorMatrix in="SourceAlpha" type="matrix" values="0 0 0 0 0 0 0 0 0 0 0 0 0 0 0 0 0 0 127 0" result="hardAlpha"/>
<feOffset dy="4"/>
<feComposite in2="hardAlpha" operator="out"/>
<feColorMatrix type="matrix" values="0 0 0 0 0.416667 0 0 0 0 0.416667 0 0 0 0 0.416667 0 0 0 1 0"/>
<feBlend mode="normal" in2="BackgroundImageFix" result="effect1_dropShadow_1_310"/>
<feBlend mode="normal" in="SourceGraphic" in2="effect1_dropShadow_1_310" result="shape"/>
</filter>
<linearGradient id="paint0_linear_1_310" x1="0" y1="126.173" x2="538" y2="126.173" gradientUnits="userSpaceOnUse">
<stop stop-color="#565658"/>
<stop offset="1" stop-color="#616161"/>
</linearGradient>
</defs>
</svg>
